<svg width="56" height="56" viewBox="0 0 24 24" fill="none" xmlns="http://www.w3.org/2000/svg">
<path d="M13 2V5.8C13 7.89868 14.7909 9.6 17 9.6L21 9.6M3 5.8L3 17.2C3 19.2987 4.79086 21 7 21H17C19.2091 21 21 19.2987 21 17.2V11.174C21 10.1662 20.5786 9.19964 19.8284 8.48701L14.1716 3.11299C13.4214 2.40036 12.404 2 11.3431 2L7 2C4.79086 2 3 3.70132 3 5.8Z" stroke="#1976D2" stroke-width="1.5" stroke-linejoin="round"/>
<path d="M6.60511 17H5.31605V13.3636H6.61577C6.98153 13.3636 7.2964 13.4364 7.56037 13.582C7.82434 13.7264 8.02734 13.9342 8.16939 14.2053C8.31262 14.4763 8.38423 14.8007 8.38423 15.1783C8.38423 15.5571 8.31262 15.8826 8.16939 16.1548C8.02734 16.4271 7.82315 16.636 7.55682 16.7816C7.29167 16.9272 6.97443 17 6.60511 17ZM6.08487 16.3413H6.57315C6.80043 16.3413 6.9916 16.301 7.14666 16.2205C7.30291 16.1388 7.4201 16.0128 7.49822 15.8423C7.57753 15.6707 7.61719 15.4493 7.61719 15.1783C7.61719 14.9096 7.57753 14.69 7.49822 14.5195C7.4201 14.3491 7.3035 14.2236 7.14844 14.1431C6.99337 14.0626 6.8022 14.0224 6.57493 14.0224H6.08487V16.3413ZM12.2954 15.1818C12.2954 15.5784 12.2202 15.9157 12.0699 16.1939C11.9207 16.4721 11.7171 16.6845 11.4591 16.8313C11.2022 16.9769 10.9134 17.0497 10.5926 17.0497C10.2694 17.0497 9.97943 16.9763 9.72257 16.8295C9.4657 16.6828 9.2627 16.4703 9.11355 16.1921C8.9644 15.9139 8.88983 15.5772 8.88983 15.1818C8.88983 14.7853 8.9644 14.4479 9.11355 14.1697C9.2627 13.8916 9.4657 13.6797 9.72257 13.5341C9.97943 13.3873 10.2694 13.3139 10.5926 13.3139C10.9134 13.3139 11.2022 13.3873 11.4591 13.5341C11.7171 13.6797 11.9207 13.8916 12.0699 14.1697C12.2202 14.4479 12.2954 14.7853 12.2954 15.1818ZM11.5159 15.1818C11.5159 14.925 11.4774 14.7083 11.4005 14.532C11.3247 14.3556 11.2176 14.2218 11.0791 14.1307C10.9406 14.0395 10.7784 13.994 10.5926 13.994C10.4068 13.994 10.2446 14.0395 10.1061 14.1307C9.9676 14.2218 9.85988 14.3556 9.78294 14.532C9.70718 14.7083 9.6693 14.925 9.6693 15.1818C9.6693 15.4387 9.70718 15.6553 9.78294 15.8317C9.85988 16.008 9.9676 16.1418 10.1061 16.233C10.2446 16.3241 10.4068 16.3697 10.5926 16.3697C10.7784 16.3697 10.9406 16.3241 11.0791 16.233C11.2176 16.1418 11.3247 16.008 11.4005 15.8317C11.4774 15.6553 11.5159 15.4387 11.5159 15.1818ZM16.0733 14.6367H15.2956C15.2814 14.5361 15.2524 14.4467 15.2086 14.3686C15.1648 14.2893 15.1086 14.2218 15.04 14.1662C14.9713 14.1106 14.892 14.0679 14.802 14.0384C14.7132 14.0088 14.6168 13.994 14.5126 13.994C14.3244 13.994 14.1605 14.0407 14.0208 14.1342C13.8811 14.2266 13.7728 14.3615 13.6958 14.5391C13.6189 14.7154 13.5804 14.9297 13.5804 15.1818C13.5804 15.4411 13.6189 15.6589 13.6958 15.8352C13.774 16.0116 13.8829 16.1448 14.0225 16.2347C14.1622 16.3247 14.3238 16.3697 14.5073 16.3697C14.6103 16.3697 14.7056 16.3561 14.7931 16.3288C14.8819 16.3016 14.9606 16.262 15.0293 16.2099C15.098 16.1566 15.1548 16.0921 15.1998 16.0163C15.2459 15.9406 15.2779 15.8542 15.2956 15.7571L16.0733 15.7607C16.0532 15.9276 16.0029 16.0885 15.9224 16.2436C15.8431 16.3975 15.736 16.5354 15.601 16.6573C15.4673 16.7781 15.3075 16.8739 15.1216 16.945C14.937 17.0148 14.728 17.0497 14.4949 17.0497C14.1705 17.0497 13.8805 16.9763 13.6248 16.8295C13.3703 16.6828 13.1691 16.4703 13.0211 16.1921C12.8743 15.9139 12.801 15.5772 12.801 15.1818C12.801 14.7853 12.8755 14.4479 13.0247 14.1697C13.1738 13.8916 13.3762 13.6797 13.6319 13.5341C13.8876 13.3873 14.1752 13.3139 14.4949 13.3139C14.7056 13.3139 14.9009 13.3435 15.0808 13.4027C15.2619 13.4619 15.4223 13.5483 15.562 13.6619C15.7016 13.7744 15.8153 13.9123 15.9029 14.0756C15.9917 14.239 16.0485 14.426 16.0733 14.6367ZM17.2674 13.3636L18.0007 14.603H18.0291L18.766 13.3636H19.6342L18.5245 15.1818L19.6591 17H18.7749L18.0291 15.7589H18.0007L17.255 17H16.3743L17.5124 15.1818L16.3956 13.3636H17.2674Z" fill="#1976D2"/>
</svg>
