<svg width="84" height="24" viewBox="0 0 84 24" fill="none" xmlns="http://www.w3.org/2000/svg">
<g clip-path="url(#clip0_2808_7640)">
<path d="M14.0999 2.37401C13.8088 1.90642 13.4303 1.49935 12.9832 1.17478C12.5328 0.867824 12.0381 0.630179 11.5169 0.467347C10.9503 0.283612 10.366 0.160389 9.77279 0.100977C9.08002 0.0327641 8.38392 0.000857988 7.68672 0.00415862H1.65318C1.0755 -0.0497517 0.56311 0.371629 0.508884 0.944839C0.508884 0.954741 0.50667 0.965743 0.50667 0.975645V10.7708C1.34331 12.5554 2.73218 14.0263 4.47075 14.9692V13.0142C4.41542 12.3804 4.88686 11.8215 5.5243 11.7665H5.52651H7.33702C9.8071 11.7665 11.6918 11.2527 12.991 10.2251C14.2902 9.19752 14.9498 7.67373 14.9697 5.65484C14.9719 5.07283 14.9033 4.49302 14.765 3.92751C14.6266 3.37851 14.4031 2.8537 14.101 2.37401H14.0999ZM10.5641 7.38217C10.3538 7.74194 10.0406 8.0324 9.66544 8.21613C9.25819 8.40977 8.81884 8.52529 8.36843 8.5583C7.87375 8.61991 7.37686 8.64962 6.87775 8.64852H5.14028C4.72418 8.64852 4.46411 8.31295 4.46411 7.82116V3.80209C4.44198 3.47202 4.69319 3.18597 5.02519 3.16286C5.06392 3.16066 5.10155 3.16176 5.13918 3.16616H6.87664C7.43994 3.16616 7.97114 3.18267 8.46914 3.21457C8.91402 3.23548 9.35004 3.3422 9.75398 3.52703C10.1258 3.69207 10.4368 3.96822 10.6404 4.31919C10.8717 4.78898 10.9768 5.30938 10.9481 5.83088C10.9602 6.37218 10.8263 6.90578 10.5618 7.37887V7.38437L10.5641 7.38217ZM4.47628 15.5578C2.98892 15.0242 1.63436 14.1771 0.50667 13.0747V17.7836C0.454657 18.151 0.71251 18.491 1.08214 18.5416C1.09099 18.5427 1.10095 18.5438 1.1098 18.5449H3.83663C4.56039 18.5449 4.47628 17.777 4.47628 17.777V15.5578ZM41.9569 5.13334H39.6041C39.1404 5.10364 38.7221 5.40949 38.6147 5.85948L35.8813 13.3453C35.8813 13.3453 33.4676 6.52511 33.2872 5.99701C33.1821 5.49531 32.7406 5.13334 32.2248 5.12674H30.0591C29.2866 5.12674 29.2866 5.72636 29.3896 5.9607C29.4925 6.19505 32.455 14.2684 33.6126 17.3578C33.7952 17.7385 33.9225 18.1422 33.9922 18.557C33.9169 18.9674 33.7609 19.3591 33.534 19.7089C33.4455 19.8575 33.3448 19.9983 33.2319 20.1292C35.4641 19.4691 38.0592 17.064 39.3617 14.4664C40.6776 10.8676 42.4084 6.06852 42.487 5.82317C42.5711 5.4458 42.5711 5.13334 41.9558 5.13334H41.9569ZM31.4701 20.8609C31.2687 20.8554 31.0673 20.84 30.867 20.8124C30.6191 20.7761 30.1487 20.8124 30.1487 21.2327V23.0327C30.1487 23.7225 30.4863 23.7709 30.6611 23.8182C31.22 23.9403 31.791 24.0009 32.3621 23.9987C33.0382 24.0163 33.7089 23.8787 34.3231 23.5971C34.8842 23.3154 35.3833 22.9238 35.7894 22.4452C36.2498 21.9215 36.6393 21.3417 36.9481 20.7178C37.2823 20.0544 37.5999 19.3206 37.9009 18.5163L38.2506 17.5624C37.5512 18.2523 34.4614 21.1491 31.469 20.862L31.4701 20.8609ZM27.91 7.28646C27.7816 6.9839 27.6067 6.70224 27.3909 6.4525C27.1729 6.22145 26.925 6.02011 26.655 5.85288C26.3628 5.65484 26.0519 5.48651 25.7254 5.34898C25.3934 5.22136 25.0525 5.11904 24.7062 5.04312C24.3089 4.95621 23.9049 4.8979 23.4999 4.86929C23.065 4.82528 22.5791 4.80328 22.0402 4.80328C18.4446 4.80328 16.3973 5.93099 15.8982 8.18643C15.8174 8.50769 16.0133 8.83335 16.3364 8.91477C16.3674 8.92247 16.3984 8.92797 16.4294 8.93017H18.6438C19.247 8.93017 19.247 8.74423 19.476 8.22824C19.5768 7.94768 19.7571 7.70123 19.9951 7.5208C20.5606 7.15773 21.2301 6.9872 21.9019 7.03451C22.5282 6.97069 23.1579 7.12582 23.6814 7.47239C24.0809 7.84316 24.3177 8.35696 24.3387 8.90046C24.3387 9.64421 24.1097 10.136 23.1801 10.136C20.9778 10.0579 18.6128 10.3043 17.2793 11.0657C15.9436 11.8765 15.1468 13.3365 15.1921 14.8922C15.1766 15.4874 15.2984 16.0782 15.5485 16.6195C15.7831 17.0904 16.124 17.5008 16.5445 17.8188C16.9849 18.1763 17.494 18.4415 18.0407 18.5988C18.6582 18.765 19.2957 18.8453 19.9353 18.8387C20.7963 18.8519 21.6529 18.7309 22.4751 18.4789C23.2022 18.1829 23.8894 17.7979 24.5202 17.3336V17.7539C24.5202 18.1675 24.6464 18.5394 25.1234 18.5394H27.6875C28.2065 18.5394 28.3272 18.173 28.3272 17.7176V9.86535C28.3305 9.37576 28.2962 8.88616 28.2242 8.40207C28.1678 8.0181 28.0616 7.64402 27.91 7.28646ZM24.404 15C24.404 15 23.74 16.3797 21.3873 16.3797C20.8229 16.405 20.2651 16.2521 19.7948 15.9418C19.3742 15.6173 19.1463 15.1024 19.1916 14.5743C19.1385 13.8602 19.5347 13.1869 20.1876 12.8832C21.1394 12.5202 22.1553 12.3507 23.1745 12.3848C23.771 12.2957 24.3277 12.7039 24.4173 13.2969C24.4262 13.353 24.4295 13.4091 24.4295 13.4652L24.4051 15.0011L24.404 15Z" fill="#333333"/>
<path d="M83.046 9.94986C83.6525 10.9191 83.6525 12.147 83.046 13.1174C82.4429 14.0294 79.1539 17.5204 78.0682 18.6415C77.1264 19.613 75.8538 20.5966 74.5933 20.5966H48.4737C44.9379 20.5966 44.7266 19.3974 44.7266 16.7217V5.81086C44.7266 3.06914 45.5411 2.27148 47.9602 2.27148H74.653C75.9025 2.27148 77.018 2.90741 78.2729 4.19135C79.3708 5.28936 82.6111 9.30183 83.046 9.94986Z" fill="#33CCCC"/>
<path d="M50.6581 6.48888V6.42287C50.6581 6.0686 50.6581 5.72754 50.0549 5.72754H47.8649C47.3525 5.72754 47.3281 6.00369 47.3281 6.43497V9.31423C48.1924 8.1183 49.3345 7.14901 50.6581 6.48888Z" fill="white"/>
<path d="M65.3262 16.9011V16.7449V9.79922C65.3262 6.89247 64.0347 5.43799 61.4529 5.43799C60.7346 5.44679 60.0319 5.65473 59.4255 6.0376C58.757 6.45238 58.1605 6.97058 57.6581 7.5735C57.4301 6.92217 56.9886 6.36657 56.4031 5.9958C55.738 5.63163 54.9844 5.45449 54.2252 5.4864C53.1086 5.4908 52.0241 5.86157 51.142 6.5426C50.9495 6.73404 47.3229 9.54177 47.3229 12.4694V16.9143C47.3229 17.0518 47.251 17.592 47.8597 17.592H50.1339C50.8399 17.592 50.7735 17.1299 50.7735 16.9385V9.74091C51.1531 9.23152 51.9322 8.01358 53.217 8.01358C53.6354 7.97617 54.0415 8.16651 54.2794 8.51198C54.5373 9.02358 54.6502 9.59679 54.6048 10.1678V15.7767V16.9286C54.6048 17.0661 54.5329 17.6063 55.1415 17.6063H57.3925C58.0986 17.6063 58.0322 17.1442 58.0322 16.9528V16.7966V9.71891C58.4427 9.20951 59.2384 7.99158 60.4757 7.99158C60.8984 7.95747 61.309 8.14671 61.5558 8.48997C61.8181 9.00047 61.9332 9.57368 61.8878 10.1458V15.7547V16.9066C61.8878 17.0441 61.8158 17.5843 62.4245 17.5843H64.6987C65.4103 17.548 65.3262 17.0925 65.3262 16.9066V16.9011Z" fill="white"/>
<path d="M77.8688 14.0771C77.0753 16.1973 74.9892 17.5604 72.7161 17.4427C69.2412 17.4427 66.9238 15.0915 66.9238 11.5643C66.9238 8.03699 69.3375 5.56592 72.5955 5.56592C75.8535 5.56592 78.0259 7.80925 78.1642 11.4267C78.1642 11.8888 78.0491 12.297 77.4648 12.297H70.0922C70.1409 14.2345 71.076 15.2962 72.7405 15.2962C73.6435 15.3182 74.4768 14.8176 74.8763 14.0122C75.0324 13.7856 75.2935 13.6525 75.5702 13.658H77.4704C77.6795 13.6481 77.8577 13.8087 77.8677 14.0177C77.8688 14.0463 77.8677 14.0738 77.8621 14.1025L77.8677 14.0782L77.8688 14.0771ZM72.6077 7.80265C71.2254 7.80265 70.2903 8.75653 70.0856 10.3276H75.0335C74.9073 8.95347 74.1581 7.80265 72.6077 7.80265Z" fill="white"/>
</g>
<defs>
<clipPath id="clip0_2808_7640">
<rect width="83" height="24" fill="white" transform="translate(0.5)"/>
</clipPath>
</defs>
</svg>
