<svg width="16" height="23" viewBox="0 0 16 23" fill="none" xmlns="http://www.w3.org/2000/svg">
<path fill-rule="evenodd" clip-rule="evenodd" d="M15.4896 9.61667C15.4896 12.4537 14.8474 14.5678 13.5638 15.9455C12.2802 17.3232 10.2975 18.0117 7.62401 18.0117C5.12634 18.0117 3.23096 17.3228 1.93902 15.9455C0.646703 14.5682 0.000732422 12.4909 0.000732422 9.71365V0.395983C0.00149194 0.177866 0.176561 0.000766665 0.392644 0H4.92165C5.13811 0.000766665 5.31318 0.177483 5.31394 0.395983V9.9172C5.31394 11.0511 5.52167 11.9239 5.94472 12.5396C6.70613 13.5585 8.14162 13.7613 9.15102 12.9927C9.30255 12.8773 9.43926 12.7435 9.55774 12.594C9.9713 12.0163 10.1771 11.1649 10.176 10.0399V8.25699H15.4896V9.61667Z" fill="#100E24"/>
<path fill-rule="evenodd" clip-rule="evenodd" d="M15.0783 7.21585H10.176V0.414383C10.1768 0.185533 10.3602 0.000383333 10.5865 0H11.3202C11.3218 2.32223 13.1871 4.20401 15.4877 4.20401H15.4889V7.21585H15.0783Z" fill="#100E24"/>
<path fill-rule="evenodd" clip-rule="evenodd" d="M12.3647 0H15.0785C15.3052 0.000766665 15.4886 0.185916 15.4894 0.414383V3.15713C13.7638 3.15713 12.3647 1.74493 12.3647 0.00306673V0Z" fill="#100E24"/>
<path fill-rule="evenodd" clip-rule="evenodd" d="M0.889775 22.5366C1.48941 22.5366 1.77879 22.1997 1.77879 21.7048V20.5122H1.34966V21.6929C1.34966 21.9505 1.14269 22.1594 0.887496 22.1594C0.632298 22.1594 0.42533 21.9505 0.42533 21.6929V20.5122H0V21.7086C0 22.1974 0.289375 22.5374 0.889015 22.5374L0.889775 22.5366ZM4.36913 22.5006V22.128H3.41821L4.34862 20.8511V20.5111H2.8687V20.8841H3.79911L2.8687 22.1571V22.499L4.36913 22.5006ZM6.37387 22.5366C6.71831 22.5447 7.03769 22.3553 7.19795 22.0475L6.83642 21.8715C6.74679 22.0471 6.56831 22.1583 6.37273 22.1606C6.01538 22.1425 5.74006 21.8359 5.7579 21.4752C5.77423 21.1394 6.04006 20.871 6.37273 20.8545C6.56793 20.858 6.74604 20.9688 6.83642 21.1436L7.19795 20.9646C7.03769 20.6571 6.71793 20.4685 6.37387 20.4785C5.81107 20.4616 5.34131 20.9082 5.32422 21.4763C5.30751 22.0444 5.74993 22.5186 6.31273 22.5358C6.33324 22.537 6.35336 22.537 6.37387 22.5366ZM10.0385 22.5006L9.27941 20.5118H8.75382L7.99165 22.5006H8.47014L8.59432 22.1636H9.43929L9.56043 22.5006H10.0385ZM9.32384 21.791H8.70939L9.01661 20.935L9.32384 21.791ZM12.8704 22.9997L12.1473 21.7439C12.4139 21.6791 12.5958 21.4299 12.5788 21.1535C12.5917 20.8116 12.3277 20.5241 11.989 20.5111C11.9651 20.5103 11.9411 20.5107 11.9172 20.5126H10.9952V22.5013H11.4148V21.7945H11.722L12.3889 22.9993L12.8704 22.9997ZM11.8549 21.4219H11.4148V20.8852H11.8534C12.0004 20.8695 12.1318 20.9772 12.1473 21.1252C12.1629 21.2735 12.0562 21.4062 11.9096 21.4219C11.891 21.4238 11.8724 21.4238 11.8538 21.4219H11.8549ZM14.4449 22.501C15.0624 22.501 15.4907 22.1073 15.4907 21.5081C15.4907 20.909 15.0616 20.5122 14.4449 20.5122H13.6679V22.501H14.4449ZM14.4449 22.1284H14.0875V20.8852H14.4449C14.7624 20.8614 15.0388 21.1022 15.0624 21.4226C15.0643 21.451 15.0643 21.4798 15.0624 21.5081C15.076 21.8366 14.8235 22.1142 14.4981 22.128C14.4802 22.1287 14.462 22.1287 14.4437 22.1276L14.4449 22.1284Z" fill="#100E24"/>
<path fill-rule="evenodd" clip-rule="evenodd" d="M16.0001 20.4747V20.4793C16.0001 20.684 15.836 20.8496 15.6336 20.85C15.4308 20.85 15.2667 20.6844 15.2664 20.4801C15.2664 20.2754 15.4304 20.1098 15.6328 20.1094C15.6328 20.1094 15.6328 20.1094 15.6332 20.1094H15.9997L16.0001 20.4747Z" fill="#100E24"/>
</svg>
