<svg width="18" height="17" viewBox="0 0 18 17" fill="none" xmlns="http://www.w3.org/2000/svg">
<path fill-rule="evenodd" clip-rule="evenodd" d="M17.7521 0.0647473C17.9078 0.164008 17.9753 0.260172 17.9949 0.410751C18.0184 0.591737 17.9601 0.76486 17.8334 0.890145L17.7309 0.991563L16.7974 1.00896L15.8639 1.02635L14.0205 6.7148C13.0067 9.84344 12.176 12.4227 12.1745 12.4464C12.1731 12.4701 12.2687 12.5382 12.387 12.5977C13.0738 12.9432 13.4918 13.631 13.4953 14.4214C13.4969 14.788 13.4445 15.0155 13.2759 15.3733C13.0327 15.8893 12.5549 16.2939 12.0184 16.4381C11.7626 16.5068 11.2763 16.5061 11.0164 16.4366C10.6477 16.338 10.3898 16.1829 10.095 15.8824C9.79551 15.5772 9.65255 15.3238 9.55534 14.9258C9.47405 14.5932 9.50426 14.0817 9.62416 13.7601C9.67409 13.6262 9.72332 13.4892 9.73354 13.4557C9.75114 13.3981 9.61755 13.3948 7.24953 13.3948C4.87894 13.3948 4.74822 13.398 4.77209 13.4557C4.93036 13.8382 4.9663 13.9888 4.98175 14.3342C4.99533 14.6388 4.98559 14.7471 4.92311 14.9859C4.7377 15.6948 4.19408 16.2552 3.51616 16.4365C3.25624 16.506 2.77084 16.5069 2.51058 16.4383C1.80468 16.2523 1.24356 15.6793 1.06105 14.958C0.983093 14.6498 1.00808 14.0556 1.11169 13.7524C1.30759 13.1792 1.76611 12.7068 2.34564 12.4811L2.54565 12.4032L6.84459 12.3858L11.1435 12.3684L11.4698 11.3769C11.6492 10.8315 11.7971 10.3658 11.7985 10.3418C11.8005 10.3072 10.8354 10.2983 7.07892 10.2983C2.0262 10.2983 2.26694 10.3064 2.11437 10.1324C2.04245 10.0504 0 3.74863 0 3.60873C0 3.47259 0.0763702 3.30312 0.183828 3.20084L0.275167 3.11386L7.20977 3.09646L14.1443 3.07906L14.6075 1.65261C15.0329 0.342385 15.0803 0.216926 15.1886 0.113073L15.3066 0L16.4788 0.000139223C17.5609 0.000243598 17.6587 0.00521876 17.7521 0.0647473ZM1.21382 4.13151C1.21382 4.14585 1.58683 5.31231 2.04272 6.7236L2.87166 9.28962L7.5105 9.28082L12.1494 9.27199L12.9698 6.73237C13.4211 5.33558 13.7903 4.17309 13.7903 4.14908C13.7903 4.11422 12.524 4.10542 7.50207 4.10542C4.04353 4.10542 1.21382 4.11714 1.21382 4.13151ZM11.0141 13.5619C10.8099 13.6801 10.6103 13.9335 10.5519 14.1487C10.5286 14.2347 10.518 14.3954 10.5276 14.5185C10.5939 15.3708 11.5479 15.7589 12.1663 15.1851C12.5779 14.8033 12.6011 14.1798 12.2201 13.7446C11.9135 13.3944 11.43 13.3211 11.0141 13.5619ZM2.5384 13.5464C2.21869 13.7135 2.02023 14.0409 2.01855 14.4038C2.01578 14.9979 2.4244 15.4495 2.96718 15.4521C3.40051 15.4543 3.74702 15.2272 3.91864 14.8287C4.05722 14.507 3.96352 14.0008 3.7154 13.7309C3.41494 13.4041 2.94992 13.3312 2.5384 13.5464Z" fill="#001E6B"/>
</svg>
