
<svg width="15" height="15" viewBox="0 0 15 15" fill="none" xmlns="http://www.w3.org/2000/svg">
<path d="M10.632 0.267995C10.7727 0.127379 10.9634 0.0483856 11.1623 0.0483856C11.3612 0.0483856 11.5519 0.127379 11.6926 0.267995L14.6929 3.26827C14.8335 3.40892 14.9125 3.59967 14.9125 3.79856C14.9125 3.99745 14.8335 4.1882 14.6929 4.32886L4.94198 14.0797C4.80135 14.2204 4.6106 14.2995 4.41168 14.2995H1.41141C1.21248 14.2995 1.0217 14.2205 0.881036 14.0798C0.740371 13.9392 0.661346 13.7484 0.661346 13.5494V10.5492C0.661389 10.3503 0.740442 10.1595 0.881116 10.0189L8.38179 2.5182L10.632 0.267995ZM8.91209 4.10909L2.16148 10.8597V12.7994H4.10116L10.8518 6.04877L8.91209 4.10909ZM11.9124 4.98817L13.102 3.79856L11.1623 1.85889L9.97268 3.0485L11.9124 4.98817Z" fill="#00467F"/>
</svg>
