<svg width="1500" height="1500" viewBox="0 0 1500 1500" fill="none" xmlns="http://www.w3.org/2000/svg">
<rect width="1500" height="1500" fill="#EEEEEE"/>
<path d="M750 493.6C780.3 493.6 809.9 499.5 837.6 511.3C864.4 522.7 888.5 538.8 909 559.5C929.7 580.2 945.8 604.2 957.2 630.9C968.9 658.6 974.9 688.1 974.9 718.5C974.9 748.8 969 778.4 957.2 806.1C945.8 832.9 929.7 857 909 877.5C888.3 898.2 864.3 914.3 837.6 925.7C809.9 937.4 780.4 943.4 750 943.4C719.6 943.4 690.1 937.5 662.4 925.7C635.6 914.3 611.5 898.2 591 877.5C570.3 856.8 554.2 832.8 542.8 806.1C531.1 778.4 525.1 748.9 525.1 718.5C525.1 688.2 531 658.6 542.8 630.9C554.2 604.1 570.3 580 591 559.5C611.7 538.8 635.7 522.7 662.4 511.3C690.1 499.5 719.7 493.6 750 493.6ZM750 486.8C622 486.8 518.3 590.6 518.3 718.5C518.3 846.4 622 950.2 750 950.2C878 950.2 981.7 846.4 981.7 718.5C981.7 590.6 878 486.8 750 486.8Z" fill="#8DD4F7"/>
<path d="M750 397.4C786.8 397.4 822.6 404.6 856.2 418.8C888.6 432.5 917.9 452.2 943 477.3C968.1 502.4 987.8 531.6 1001.5 564.1C1015.7 597.7 1022.9 633.5 1022.9 670.3C1022.9 707.1 1015.7 742.9 1001.5 776.5C987.8 808.9 968.1 838.2 943 863.3C917.9 888.4 888.7 908.1 856.2 921.8C822.6 936 786.8 943.2 750 943.2C713.2 943.2 677.4 936 643.8 921.8C611.4 908.1 582.1 888.4 557 863.3C531.9 838.2 512.2 809 498.5 776.5C484.3 742.9 477.1 707.1 477.1 670.3C477.1 633.5 484.3 597.7 498.5 564.1C512.2 531.7 531.9 502.4 557 477.3C582.1 452.2 611.3 432.5 643.8 418.8C677.4 404.6 713.2 397.4 750 397.4ZM750 390.7C595.5 390.7 470.3 515.9 470.3 670.4C470.3 824.9 595.5 950.2 750 950.2C904.5 950.2 1029.7 825 1029.7 670.5C1029.7 516 904.5 390.7 750 390.7Z" fill="#8DD4F7"/>
<path d="M750.1 486.8C774.842 486.8 794.9 466.742 794.9 442C794.9 417.258 774.842 397.2 750.1 397.2C725.358 397.2 705.3 417.258 705.3 442C705.3 466.742 725.358 486.8 750.1 486.8Z" fill="#8DD4F7"/>
<path d="M476.3 970.9C473.7 968.1 467.6 969.6 462.7 974.1C459.1 977.5 457.1 981.6 457.5 984.7C456.7 985.3 455.9 985.9 455 986.7C452.7 988.9 451.1 991.2 450.6 992.8C450 993.3 441.8 998.4 434.3 1002.9C430.6 1005 429.8 1005.5 425.1 1008.5C420.9 1011.5 420.1 1011.6 417 1015.4C415.4 1017.4 411.9 1024.3 409.2 1029.4C406.5 1034.5 402.1 1043.9 389.4 1053.1C383.4 1057 373.9 1063.7 363.6 1067.7C368.8 1067 386.7 1058.3 395.5 1051.1C402.2 1046 408 1038.8 411.9 1030.7C417.5 1020 419.2 1016 425 1012.2C432.9 1007 430.7 1008.6 437.8 1004.2C446.2 999.2 449 997.9 452.4 995.1C454.1 994.8 456.7 993.4 459.2 991C460 990.2 460.8 989.4 461.4 988.6C464.5 989 468.7 987.4 472.2 984C477.1 979.7 478.9 973.7 476.3 970.9Z" fill="#8DD4F7"/>
<path d="M376.2 1024.2C373.7 1021.2 367.6 1022.2 362.4 1026.5C358.5 1029.7 356.3 1033.6 356.4 1036.7C355.6 1037.2 354.7 1037.8 353.8 1038.5C351.4 1040.5 349.6 1042.7 349 1044.3C348.4 1044.8 339.9 1049.3 332 1053.2C328.1 1055 327.4 1055.5 322.4 1058.2C318 1060.9 317.2 1061 313.9 1064.5C312.2 1066.3 308.2 1073 305.2 1077.9C302.2 1082.8 297.2 1091.8 283.8 1100.2C277.5 1103.7 267.7 1109.6 257 1113C262.2 1112.7 280.7 1105.2 290 1098.6C297 1094 303.3 1087.2 307.8 1079.5C314.1 1069.2 316.1 1065.3 322.1 1062C330.4 1057.4 328.1 1058.8 335.4 1055C344.1 1050.6 347 1049.5 350.6 1046.9C352.3 1046.8 355 1045.4 357.6 1043.3C358.5 1042.6 359.3 1041.8 360 1041.1C363 1041.8 367.3 1040.4 371.1 1037.2C376.4 1033.1 378.6 1027.2 376.2 1024.2Z" fill="#8DD4F7"/>
<path d="M256.3 1087.6C254.1 1084.5 247.9 1085 242.4 1088.9C238.3 1091.7 235.8 1095.6 235.7 1098.7C234.8 1099.1 233.9 1099.7 233 1100.3C230.4 1102.1 228.5 1104.2 227.8 1105.8C227.1 1106.2 218.3 1110.2 210.2 1113.5C206.2 1115 205.4 1115.5 200.3 1117.8C195.7 1120.2 194.9 1120.2 191.3 1123.5C189.5 1125.2 185 1131.6 181.6 1136.2C178.2 1140.8 172.6 1149.5 158.6 1156.9C152.1 1159.9 141.8 1165.2 131 1167.8C136.3 1167.9 155.2 1161.8 164.9 1155.9C172.3 1151.8 179 1145.5 184 1138.1C191.1 1128.3 193.3 1124.5 199.5 1121.6C208.1 1117.6 205.6 1118.8 213.3 1115.5C222.3 1111.7 225.3 1110.9 229.1 1108.6C230.8 1108.6 233.6 1107.5 236.4 1105.5C237.3 1104.8 238.2 1104.2 238.9 1103.4C241.9 1104.2 246.3 1103.2 250.3 1100.4C255.8 1096.4 258.5 1090.7 256.3 1087.6Z" fill="#8DD4F7"/>
<path d="M228.3 1146.6C225.6 1143.8 219.6 1145.3 214.7 1149.9C211.1 1153.3 209.1 1157.5 209.5 1160.6C208.7 1161.2 207.9 1161.8 207 1162.6C204.7 1164.8 203.1 1167.1 202.6 1168.7C202 1169.2 193.8 1174.4 186.3 1178.9C182.6 1181 181.8 1181.5 177.1 1184.5C172.9 1187.5 172.1 1187.6 169.1 1191.4C167.5 1193.4 164 1200.3 161.3 1205.4C158.6 1210.5 154.3 1219.9 141.5 1229.1C135.5 1233 126.1 1239.7 115.7 1243.8C120.9 1243.1 138.8 1234.4 147.6 1227.1C154.3 1222 160 1214.8 164 1206.7C169.6 1196 171.3 1192 177 1188.2C184.9 1183 182.7 1184.6 189.8 1180.2C198.2 1175.2 201 1173.9 204.4 1171C206.1 1170.7 208.7 1169.3 211.2 1166.9C212 1166.1 212.8 1165.3 213.4 1164.5C216.5 1164.9 220.7 1163.3 224.2 1159.9C229.1 1155.4 231 1149.4 228.3 1146.6Z" fill="#8DD4F7"/>
<path d="M306.6 1169C303.9 1166.2 297.9 1167.7 293 1172.3C289.4 1175.7 287.4 1179.9 287.8 1183C287 1183.6 286.2 1184.2 285.3 1185C283 1187.2 281.4 1189.5 280.9 1191.1C280.3 1191.6 272.1 1196.8 264.6 1201.3C260.9 1203.4 260.1 1203.9 255.4 1206.9C251.2 1209.9 250.4 1210 247.4 1213.8C245.8 1215.8 242.3 1222.7 239.6 1227.8C236.9 1232.9 232.6 1242.3 219.8 1251.5C213.8 1255.4 204.4 1262.1 194 1266.2C199.2 1265.5 217.1 1256.8 225.9 1249.5C232.6 1244.4 238.3 1237.2 242.3 1229.1C247.9 1218.4 249.6 1214.4 255.3 1210.6C263.2 1205.4 261 1207 268.1 1202.6C276.5 1197.6 279.3 1196.3 282.7 1193.4C284.4 1193.1 287 1191.7 289.5 1189.3C290.3 1188.5 291.1 1187.7 291.7 1186.9C294.8 1187.3 299 1185.7 302.5 1182.3C307.4 1177.8 309.2 1171.8 306.6 1169Z" fill="#8DD4F7"/>
<path d="M393.1 1137.1C395.8 1139.9 394 1145.9 389.2 1150.6C385.6 1154.1 381.4 1155.9 378.4 1155.4C377.8 1156.2 377.1 1157 376.3 1157.7C374.1 1159.9 371.7 1161.4 370 1161.8C369.4 1162.4 364 1170.3 359.2 1177.7C357 1181.3 356.4 1182.1 353.2 1186.7C350 1190.8 349.9 1191.6 346 1194.5C344 1196 336.9 1199.2 331.7 1201.7C326.5 1204.2 317 1208.2 307.2 1220.5C303 1226.3 296 1235.5 291.5 1245.7C292.4 1240.5 301.8 1223 309.5 1214.5C314.9 1208 322.3 1202.6 330.5 1199C341.4 1193.9 345.5 1192.4 349.5 1186.7C355 1179 353.4 1181.2 358 1174.3C363.4 1166.1 364.8 1163.4 367.7 1160.1C368 1158.4 369.6 1155.9 372.1 1153.5C372.9 1152.7 373.8 1151.9 374.6 1151.4C374.3 1148.3 376.1 1144.2 379.7 1140.8C384.4 1135.9 390.5 1134.3 393.1 1137.1Z" fill="#8DD4F7"/>
<path d="M340.2 1092.6C342.7 1095.6 340.4 1101.4 335.3 1105.7C331.4 1108.9 327.1 1110.3 324.1 1109.6C323.4 1110.3 322.6 1111.1 321.8 1111.8C319.4 1113.8 316.9 1115.1 315.2 1115.4C314.6 1115.9 308.5 1123.4 303.1 1130.3C300.6 1133.7 300 1134.4 296.3 1138.7C292.8 1142.5 292.6 1143.3 288.5 1145.8C286.4 1147.1 279.1 1149.8 273.7 1151.8C268.3 1153.8 258.5 1157 247.7 1168.5C243.1 1174 235.3 1182.5 229.9 1192.3C231.2 1187.2 242.1 1170.5 250.4 1162.7C256.3 1156.7 264.2 1151.9 272.6 1149C283.9 1144.8 288.1 1143.6 292.6 1138.3C298.7 1131 297 1133.1 302.1 1126.6C308.1 1118.9 309.7 1116.3 312.9 1113.2C313.3 1111.5 315.1 1109.1 317.8 1107C318.7 1106.3 319.6 1105.6 320.4 1105.1C320.3 1102 322.5 1098.1 326.3 1094.9C331.6 1090.7 337.8 1089.6 340.2 1092.6Z" fill="#8DD4F7"/>
<path d="M442 1033.7C444.7 1036.4 443 1042.5 438.3 1047.2C434.7 1050.7 430.5 1052.6 427.5 1052.1C426.9 1052.9 426.2 1053.7 425.4 1054.4C423.2 1056.6 420.8 1058.1 419.1 1058.5C418.5 1059.1 413.1 1067 408.4 1074.4C406.2 1078 405.7 1078.8 402.4 1083.4C399.2 1087.5 399.1 1088.3 395.2 1091.2C393.2 1092.7 386.1 1095.9 381 1098.5C375.8 1101 366.3 1105 356.6 1117.4C352.5 1123.3 345.5 1132.4 341 1142.6C341.9 1137.4 351.2 1119.8 358.8 1111.3C364.2 1104.8 371.6 1099.3 379.7 1095.7C390.6 1090.5 394.7 1089 398.7 1083.4C404.2 1075.6 402.6 1077.8 407.1 1070.9C412.5 1062.7 413.8 1060 416.8 1056.6C417.1 1054.9 418.7 1052.4 421.1 1050C421.9 1049.2 422.8 1048.4 423.6 1047.9C423.3 1044.8 425.1 1040.7 428.6 1037.2C433.3 1032.6 439.3 1031 442 1033.7Z" fill="#8DD4F7"/>
<path d="M670.351 606.2C681.711 606.2 690.271 612.84 690.271 624.44C690.271 635.8 681.311 642.6 670.911 642.6H657.951V663H651.631V606.2H670.351ZM669.471 636.44C678.031 636.44 683.871 632.12 683.871 624.2C683.871 616.44 678.431 612.28 669.071 612.28H657.951V636.44H669.471ZM716.776 623C725.496 623 731.016 628.44 731.016 638.2V663H724.856V639.4C724.856 631.8 720.296 628.68 715.336 628.68C708.536 628.68 704.296 635.16 704.296 642.44V663H698.136V604.6H704.296V631.24C705.656 628.12 709.816 623 716.776 623ZM759.694 663.8C749.214 663.8 739.614 655 739.614 643.4C739.614 631.8 749.214 623 759.694 623C770.334 623 779.934 631.8 779.934 643.4C779.934 655 770.334 663.8 759.694 663.8ZM759.694 657.96C767.214 657.96 773.614 651.88 773.614 643.4C773.614 634.92 767.214 628.84 759.694 628.84C752.334 628.84 745.934 634.92 745.934 643.4C745.934 651.88 752.334 657.96 759.694 657.96ZM802.176 663.8C794.016 663.8 790.976 659.32 790.976 652.2V629H783.216V623.8H790.976V613H797.136V623.8H808.736V629H797.136V650.68C797.136 656.2 798.496 657.96 803.216 657.96C804.976 657.96 806.656 657.64 807.856 657.4V663.16C806.496 663.48 804.336 663.8 802.176 663.8ZM832.625 663.8C822.145 663.8 812.545 655 812.545 643.4C812.545 631.8 822.145 623 832.625 623C843.265 623 852.865 631.8 852.865 643.4C852.865 655 843.265 663.8 832.625 663.8ZM832.625 657.96C840.145 657.96 846.545 651.88 846.545 643.4C846.545 634.92 840.145 628.84 832.625 628.84C825.265 628.84 818.865 634.92 818.865 643.4C818.865 651.88 825.265 657.96 832.625 657.96ZM644.058 748.8C632.698 748.8 623.178 740.88 623.178 728.48C623.178 716.08 632.538 708 644.058 708C648.378 708 652.458 709.12 654.298 710V716C652.138 714.88 648.618 713.84 644.938 713.84C636.618 713.84 629.498 719.52 629.498 728.48C629.498 737.44 636.618 743.12 644.698 743.12C648.378 743.12 652.058 741.92 654.218 740.88V746.88C652.138 747.84 648.058 748.8 644.058 748.8ZM679.8 748.8C669.32 748.8 659.72 740 659.72 728.4C659.72 716.8 669.32 708 679.8 708C690.44 708 700.04 716.8 700.04 728.4C700.04 740 690.44 748.8 679.8 748.8ZM679.8 742.96C687.32 742.96 693.72 736.88 693.72 728.4C693.72 719.92 687.32 713.84 679.8 713.84C672.44 713.84 666.04 719.92 666.04 728.4C666.04 736.88 672.44 742.96 679.8 742.96ZM709.064 748V708.8H715.064V716.32C716.584 712.8 719.864 708 726.584 708C732.744 708 736.424 712.4 738.104 716.56C740.104 712.32 744.024 708.08 751.224 708.08C758.584 708.08 764.584 712.64 764.584 722.4V748H758.504V723.84C758.504 716.72 754.584 713.76 749.784 713.76C742.824 713.76 739.944 720.08 739.944 724.72V748H733.864V724.72C733.864 718.16 730.104 713.68 724.984 713.68C718.184 713.68 715.224 720.8 715.224 726.56V748H709.064ZM778.96 700.24C776.48 700.24 774.56 698.32 774.56 695.84C774.56 693.44 776.48 691.52 778.96 691.52C781.36 691.52 783.28 693.44 783.28 695.84C783.28 698.32 781.36 700.24 778.96 700.24ZM775.84 748V708.8H782V748H775.84ZM793.792 748V708.8H799.792V716.64C800.992 713.52 805.152 708 812.432 708C821.152 708 826.672 713.44 826.672 723.2V748H820.512V724.4C820.512 716.8 815.952 713.68 810.992 713.68C804.192 713.68 799.952 720.16 799.952 727.44V748H793.792ZM854.07 765.6C847.35 765.6 841.51 762.88 840.15 762.24V756.08C841.91 757.04 847.51 760 853.99 760C861.91 760 868.07 754.16 868.07 747.76V740.48C866.23 743.92 861.59 748.56 854.07 748.56C843.83 748.56 835.35 739.76 835.35 728.08C835.35 716.48 843.83 708 854.07 708C861.99 708 866.63 713.28 867.91 716.16V708.8H874.07V747.92C874.07 756.88 866.07 765.6 854.07 765.6ZM854.87 742.96C862.47 742.96 868.39 736.72 868.39 728.08C868.39 720.08 863.03 713.6 854.87 713.6C848.07 713.6 841.67 719.28 841.67 728.08C841.67 736.48 847.51 742.96 854.87 742.96ZM680.58 833.8C674.82 833.8 669.86 831.8 667.94 830.84V824.76C669.7 825.72 674.82 828.36 680.5 828.36C685.38 828.36 689.38 826.6 689.38 822.28C689.38 817.48 684.1 816.28 678.82 814.52C673.3 812.76 667.62 810.6 667.62 803.72C667.62 797.08 673.54 793 682.34 793C687.86 793 692.1 794.6 693.62 795.32V801.16C691.54 800.28 687.54 798.36 682.26 798.36C676.98 798.36 673.78 800.44 673.78 803.64C673.78 807.08 677.46 808.36 681.7 809.72C687.94 811.64 695.46 813.72 695.46 822.04C695.46 830.04 688.5 833.8 680.58 833.8ZM721.734 833.8C711.254 833.8 701.654 825 701.654 813.4C701.654 801.8 711.254 793 721.734 793C732.374 793 741.974 801.8 741.974 813.4C741.974 825 732.374 833.8 721.734 833.8ZM721.734 827.96C729.254 827.96 735.654 821.88 735.654 813.4C735.654 804.92 729.254 798.84 721.734 798.84C714.374 798.84 707.974 804.92 707.974 813.4C707.974 821.88 714.374 827.96 721.734 827.96ZM768.278 833.8C757.798 833.8 748.198 825 748.198 813.4C748.198 801.8 757.798 793 768.278 793C778.918 793 788.518 801.8 788.518 813.4C788.518 825 778.918 833.8 768.278 833.8ZM768.278 827.96C775.798 827.96 782.198 821.88 782.198 813.4C782.198 804.92 775.798 798.84 768.278 798.84C760.918 798.84 754.518 804.92 754.518 813.4C754.518 821.88 760.918 827.96 768.278 827.96ZM797.542 833V793.8H803.542V801.64C804.742 798.52 808.902 793 816.182 793C824.902 793 830.422 798.44 830.422 808.2V833H824.262V809.4C824.262 801.8 819.702 798.68 814.742 798.68C807.942 798.68 803.702 805.16 803.702 812.44V833H797.542Z" fill="#8F8F8F"/>
</svg>
